<svg xmlns="http://www.w3.org/2000/svg" id="ic_fluent_arrow_sort_16_regular" width="12.236" height="10.488" viewBox="0 0 12.236 10.488">
  <path id="ic_fluent_arrow_sort_16_regular-2" data-name="ic_fluent_arrow_sort_16_regular" d="M4.368,2.128a.437.437,0,0,0-.618,0L1.128,4.75a.437.437,0,0,0,.618.618L3.622,3.492v8.559a.437.437,0,1,0,.874,0V3.492L6.372,5.368A.437.437,0,0,0,6.99,4.75ZM9.874,12.365a.437.437,0,0,0,.607,0L13.1,9.831A.437.437,0,0,0,12.5,9.2l-1.881,1.819V2.437a.437.437,0,0,0-.874,0v8.584L7.859,9.2a.437.437,0,0,0-.607.628Z" transform="translate(-1 -2)" fill="#0d1e33" opacity="1"/>
</svg>